<?xml version="1.0" encoding="UTF-8" standalone="no"?>
<!DOCTYPE svg PUBLIC "-//W3C//DTD SVG 1.1//EN"
 "http://www.w3.org/Graphics/SVG/1.1/DTD/svg11.dtd">
<!-- Generated by graphviz version 2.40.1 (20161225.0304)
 -->
<!-- Title: %3 Pages: 1 -->
<svg width="1211pt" height="404pt"
 viewBox="0.00 0.00 1211.39 404.00" xmlns="http://www.w3.org/2000/svg" xmlns:xlink="http://www.w3.org/1999/xlink">
<g id="graph0" class="graph" transform="scale(1 1) rotate(0) translate(4 400)">
<title>%3</title>
<polygon fill="#ffffff" stroke="transparent" points="-4,4 -4,-400 1207.3875,-400 1207.3875,4 -4,4"/>
<!-- [root] aws_instance.veos -->
<g id="node1" class="node">
<title>[root] aws_instance.veos</title>
<polygon fill="none" stroke="#000000" points="761.5,-252 612.5,-252 612.5,-216 761.5,-216 761.5,-252"/>
<text text-anchor="middle" x="687" y="-230.3" font-family="Times,serif" font-size="14.00" fill="#000000">aws_instance.veos</text>
</g>
<!-- [root] aws_key_pair.auth -->
<g id="node3" class="node">
<title>[root] aws_key_pair.auth</title>
<polygon fill="none" stroke="#000000" points="880.5,-108 731.5,-108 731.5,-72 880.5,-72 880.5,-108"/>
<text text-anchor="middle" x="806" y="-86.3" font-family="Times,serif" font-size="14.00" fill="#000000">aws_key_pair.auth</text>
</g>
<!-- [root] aws_instance.veos&#45;&gt;[root] aws_key_pair.auth -->
<g id="edge1" class="edge">
<title>[root] aws_instance.veos&#45;&gt;[root] aws_key_pair.auth</title>
<path fill="none" stroke="#000000" d="M761.7158,-227.9021C826.621,-220.8706 913.5055,-206.6784 935,-180 945.0383,-167.5408 943.8642,-157.3201 935,-144 924.2903,-127.9067 907.7639,-116.6005 890.0749,-108.6603"/>
<polygon fill="#000000" stroke="#000000" points="891.3223,-105.3888 880.7434,-104.8074 888.6508,-111.859 891.3223,-105.3888"/>
</g>
<!-- [root] aws_security_group.default -->
<g id="node5" class="node">
<title>[root] aws_security_group.default</title>
<polygon fill="none" stroke="#000000" points="925.5,-180 710.5,-180 710.5,-144 925.5,-144 925.5,-180"/>
<text text-anchor="middle" x="818" y="-158.3" font-family="Times,serif" font-size="14.00" fill="#000000">aws_security_group.default</text>
</g>
<!-- [root] aws_instance.veos&#45;&gt;[root] aws_security_group.default -->
<g id="edge2" class="edge">
<title>[root] aws_instance.veos&#45;&gt;[root] aws_security_group.default</title>
<path fill="none" stroke="#000000" d="M720.0568,-215.8314C736.9677,-206.5368 757.7385,-195.1208 775.7941,-185.1971"/>
<polygon fill="#000000" stroke="#000000" points="777.876,-188.0468 784.9537,-180.1628 774.5043,-181.9122 777.876,-188.0468"/>
</g>
<!-- [root] aws_subnet.default -->
<g id="node6" class="node">
<title>[root] aws_subnet.default</title>
<polygon fill="none" stroke="#000000" points="403.5,-180 248.5,-180 248.5,-144 403.5,-144 403.5,-180"/>
<text text-anchor="middle" x="326" y="-158.3" font-family="Times,serif" font-size="14.00" fill="#000000">aws_subnet.default</text>
</g>
<!-- [root] aws_instance.veos&#45;&gt;[root] aws_subnet.default -->
<g id="edge3" class="edge">
<title>[root] aws_instance.veos&#45;&gt;[root] aws_subnet.default</title>
<path fill="none" stroke="#000000" d="M612.2506,-219.5822C559.4024,-209.3283 486.6034,-195.0824 414.0419,-180.404"/>
<polygon fill="#000000" stroke="#000000" points="414.3027,-176.8858 403.8068,-178.3303 412.9126,-183.7464 414.3027,-176.8858"/>
</g>
<!-- [root] data.aws_ami.vRouter -->
<g id="node8" class="node">
<title>[root] data.aws_ami.vRouter</title>
<polygon fill="none" stroke="#000000" points="1078,-108 902,-108 902,-72 1078,-72 1078,-108"/>
<text text-anchor="middle" x="990" y="-86.3" font-family="Times,serif" font-size="14.00" fill="#000000">data.aws_ami.vRouter</text>
</g>
<!-- [root] aws_instance.veos&#45;&gt;[root] data.aws_ami.vRouter -->
<g id="edge4" class="edge">
<title>[root] aws_instance.veos&#45;&gt;[root] data.aws_ami.vRouter</title>
<path fill="none" stroke="#000000" d="M761.7999,-226.573C829.6798,-218.4668 923.3928,-203.426 952,-180 970.7731,-164.627 980.4313,-138.329 985.2994,-118.1177"/>
<polygon fill="#000000" stroke="#000000" points="988.7529,-118.7054 987.4313,-108.1933 981.909,-117.2352 988.7529,-118.7054"/>
</g>
<!-- [root] local.user_data_path -->
<g id="node10" class="node">
<title>[root] local.user_data_path</title>
<ellipse fill="none" stroke="#000000" cx="557" cy="-162" rx="135.6761" ry="18"/>
<text text-anchor="middle" x="557" y="-158.3" font-family="Times,serif" font-size="14.00" fill="#000000">[root] local.user_data_path</text>
</g>
<!-- [root] aws_instance.veos&#45;&gt;[root] local.user_data_path -->
<g id="edge5" class="edge">
<title>[root] aws_instance.veos&#45;&gt;[root] local.user_data_path</title>
<path fill="none" stroke="#000000" d="M654.1955,-215.8314C637.1575,-206.3949 616.1712,-194.7717 598.0649,-184.7436"/>
<polygon fill="#000000" stroke="#000000" points="599.3389,-181.4483 588.8952,-179.665 595.9474,-187.5719 599.3389,-181.4483"/>
</g>
<!-- [root] aws_internet_gateway.default -->
<g id="node2" class="node">
<title>[root] aws_internet_gateway.default</title>
<polygon fill="none" stroke="#000000" points="230,-180 0,-180 0,-144 230,-144 230,-180"/>
<text text-anchor="middle" x="115" y="-158.3" font-family="Times,serif" font-size="14.00" fill="#000000">aws_internet_gateway.default</text>
</g>
<!-- [root] aws_vpc.default -->
<g id="node7" class="node">
<title>[root] aws_vpc.default</title>
<polygon fill="none" stroke="#000000" points="635,-108 503,-108 503,-72 635,-72 635,-108"/>
<text text-anchor="middle" x="569" y="-86.3" font-family="Times,serif" font-size="14.00" fill="#000000">aws_vpc.default</text>
</g>
<!-- [root] aws_internet_gateway.default&#45;&gt;[root] aws_vpc.default -->
<g id="edge6" class="edge">
<title>[root] aws_internet_gateway.default&#45;&gt;[root] aws_vpc.default</title>
<path fill="none" stroke="#000000" d="M230.219,-144.997C316.3521,-132.2059 426.7211,-115.6234 472,-108 478.6953,-106.8727 485.643,-105.663 492.6042,-104.4233"/>
<polygon fill="#000000" stroke="#000000" points="493.563,-107.8071 502.7853,-102.5918 492.3235,-100.9177 493.563,-107.8071"/>
</g>
<!-- [root] provider.aws -->
<g id="node9" class="node">
<title>[root] provider.aws</title>
<polygon fill="none" stroke="#000000" points="805,-36 705.9615,-18 805,0 904.0385,-18 805,-36"/>
<text text-anchor="middle" x="805" y="-14.3" font-family="Times,serif" font-size="14.00" fill="#000000">provider.aws</text>
</g>
<!-- [root] aws_key_pair.auth&#45;&gt;[root] provider.aws -->
<g id="edge9" class="edge">
<title>[root] aws_key_pair.auth&#45;&gt;[root] provider.aws</title>
<path fill="none" stroke="#000000" d="M805.7477,-71.8314C805.6407,-64.131 805.5135,-54.9743 805.3947,-46.4166"/>
<polygon fill="#000000" stroke="#000000" points="808.8944,-46.3637 805.2557,-36.4133 801.8951,-46.4609 808.8944,-46.3637"/>
</g>
<!-- [root] local.prefix -->
<g id="node11" class="node">
<title>[root] local.prefix</title>
<ellipse fill="none" stroke="#000000" cx="591" cy="-18" rx="91.784" ry="18"/>
<text text-anchor="middle" x="591" y="-14.3" font-family="Times,serif" font-size="14.00" fill="#000000">[root] local.prefix</text>
</g>
<!-- [root] aws_key_pair.auth&#45;&gt;[root] local.prefix -->
<g id="edge7" class="edge">
<title>[root] aws_key_pair.auth&#45;&gt;[root] local.prefix</title>
<path fill="none" stroke="#000000" d="M752.0239,-71.9243C720.1221,-61.2409 679.7769,-47.7299 647.452,-36.9048"/>
<polygon fill="#000000" stroke="#000000" points="648.2897,-33.4944 637.6958,-33.6377 646.0668,-40.1321 648.2897,-33.4944"/>
</g>
<!-- [root] local.public_key_path -->
<g id="node12" class="node">
<title>[root] local.public_key_path</title>
<ellipse fill="none" stroke="#000000" cx="1063" cy="-18" rx="140.2752" ry="18"/>
<text text-anchor="middle" x="1063" y="-14.3" font-family="Times,serif" font-size="14.00" fill="#000000">[root] local.public_key_path</text>
</g>
<!-- [root] aws_key_pair.auth&#45;&gt;[root] local.public_key_path -->
<g id="edge8" class="edge">
<title>[root] aws_key_pair.auth&#45;&gt;[root] local.public_key_path</title>
<path fill="none" stroke="#000000" d="M870.5202,-71.9243C908.1918,-61.3704 955.7127,-48.0571 994.1106,-37.2997"/>
<polygon fill="#000000" stroke="#000000" points="995.4874,-40.5489 1004.1725,-34.4809 993.599,-33.8084 995.4874,-40.5489"/>
</g>
<!-- [root] aws_route.internet_access -->
<g id="node4" class="node">
<title>[root] aws_route.internet_access</title>
<polygon fill="none" stroke="#000000" points="392,-252 184,-252 184,-216 392,-216 392,-252"/>
<text text-anchor="middle" x="288" y="-230.3" font-family="Times,serif" font-size="14.00" fill="#000000">aws_route.internet_access</text>
</g>
<!-- [root] aws_route.internet_access&#45;&gt;[root] aws_internet_gateway.default -->
<g id="edge10" class="edge">
<title>[root] aws_route.internet_access&#45;&gt;[root] aws_internet_gateway.default</title>
<path fill="none" stroke="#000000" d="M244.3448,-215.8314C221.1042,-206.159 192.3432,-194.1891 167.8477,-183.9944"/>
<polygon fill="#000000" stroke="#000000" points="168.9185,-180.6491 158.3413,-180.038 166.2288,-187.1117 168.9185,-180.6491"/>
</g>
<!-- [root] aws_security_group.default&#45;&gt;[root] aws_vpc.default -->
<g id="edge11" class="edge">
<title>[root] aws_security_group.default&#45;&gt;[root] aws_vpc.default</title>
<path fill="none" stroke="#000000" d="M755.4882,-143.9243C720.8564,-133.9103 677.6333,-121.412 641.5213,-110.97"/>
<polygon fill="#000000" stroke="#000000" points="642.1162,-107.4987 631.5375,-108.0831 640.1717,-114.2232 642.1162,-107.4987"/>
</g>
<!-- [root] aws_subnet.default&#45;&gt;[root] aws_vpc.default -->
<g id="edge12" class="edge">
<title>[root] aws_subnet.default&#45;&gt;[root] aws_vpc.default</title>
<path fill="none" stroke="#000000" d="M387.0055,-143.9243C420.8028,-133.9103 462.9844,-121.412 498.2262,-110.97"/>
<polygon fill="#000000" stroke="#000000" points="499.3757,-114.2799 507.9694,-108.0831 497.3871,-107.5683 499.3757,-114.2799"/>
</g>
<!-- [root] local.subnet -->
<g id="node13" class="node">
<title>[root] local.subnet</title>
<ellipse fill="none" stroke="#000000" cx="367" cy="-90" rx="96.3833" ry="18"/>
<text text-anchor="middle" x="367" y="-86.3" font-family="Times,serif" font-size="14.00" fill="#000000">[root] local.subnet</text>
</g>
<!-- [root] aws_subnet.default&#45;&gt;[root] local.subnet -->
<g id="edge13" class="edge">
<title>[root] aws_subnet.default&#45;&gt;[root] local.subnet</title>
<path fill="none" stroke="#000000" d="M336.346,-143.8314C340.9942,-135.6688 346.574,-125.87 351.6918,-116.8827"/>
<polygon fill="#000000" stroke="#000000" points="354.8923,-118.3352 356.7993,-107.9134 348.8094,-114.8713 354.8923,-118.3352"/>
</g>
<!-- [root] aws_vpc.default&#45;&gt;[root] provider.aws -->
<g id="edge16" class="edge">
<title>[root] aws_vpc.default&#45;&gt;[root] provider.aws</title>
<path fill="none" stroke="#000000" d="M628.2481,-71.9243C668.4817,-59.6497 720.9496,-43.6425 758.243,-32.2648"/>
<polygon fill="#000000" stroke="#000000" points="759.3143,-35.5973 767.8578,-29.3315 757.2716,-28.902 759.3143,-35.5973"/>
</g>
<!-- [root] aws_vpc.default&#45;&gt;[root] local.prefix -->
<g id="edge15" class="edge">
<title>[root] aws_vpc.default&#45;&gt;[root] local.prefix</title>
<path fill="none" stroke="#000000" d="M574.5515,-71.8314C576.9303,-64.0463 579.7638,-54.7729 582.4033,-46.1347"/>
<polygon fill="#000000" stroke="#000000" points="585.7987,-46.9996 585.3737,-36.4133 579.1042,-44.954 585.7987,-46.9996"/>
</g>
<!-- [root] local.cidr -->
<g id="node14" class="node">
<title>[root] local.cidr</title>
<ellipse fill="none" stroke="#000000" cx="388" cy="-18" rx="83.3857" ry="18"/>
<text text-anchor="middle" x="388" y="-14.3" font-family="Times,serif" font-size="14.00" fill="#000000">[root] local.cidr</text>
</g>
<!-- [root] aws_vpc.default&#45;&gt;[root] local.cidr -->
<g id="edge14" class="edge">
<title>[root] aws_vpc.default&#45;&gt;[root] local.cidr</title>
<path fill="none" stroke="#000000" d="M523.3261,-71.8314C497.1167,-61.4055 464.1968,-48.3103 437.3886,-37.6463"/>
<polygon fill="#000000" stroke="#000000" points="438.3977,-34.281 427.8122,-33.8369 435.8103,-40.7853 438.3977,-34.281"/>
</g>
<!-- [root] data.aws_ami.vRouter&#45;&gt;[root] provider.aws -->
<g id="edge17" class="edge">
<title>[root] data.aws_ami.vRouter&#45;&gt;[root] provider.aws</title>
<path fill="none" stroke="#000000" d="M943.3167,-71.8314C913.3119,-60.1538 874.7024,-45.1274 845.9037,-33.9193"/>
<polygon fill="#000000" stroke="#000000" points="847.1285,-30.6403 836.54,-30.275 844.5896,-37.1637 847.1285,-30.6403"/>
</g>
<!-- [root] local.subnet&#45;&gt;[root] local.cidr -->
<g id="edge18" class="edge">
<title>[root] local.subnet&#45;&gt;[root] local.cidr</title>
<path fill="none" stroke="#000000" d="M372.2992,-71.8314C374.5698,-64.0463 377.2746,-54.7729 379.794,-46.1347"/>
<polygon fill="#000000" stroke="#000000" points="383.1894,-46.9933 382.6295,-36.4133 376.4694,-45.0332 383.1894,-46.9933"/>
</g>
<!-- [root] meta.count&#45;boundary (count boundary fixup) -->
<g id="node15" class="node">
<title>[root] meta.count&#45;boundary (count boundary fixup)</title>
<ellipse fill="none" stroke="#000000" cx="687" cy="-306" rx="248.0561" ry="18"/>
<text text-anchor="middle" x="687" y="-302.3" font-family="Times,serif" font-size="14.00" fill="#000000">[root] meta.count&#45;boundary (count boundary fixup)</text>
</g>
<!-- [root] meta.count&#45;boundary (count boundary fixup)&#45;&gt;[root] aws_instance.veos -->
<g id="edge19" class="edge">
<title>[root] meta.count&#45;boundary (count boundary fixup)&#45;&gt;[root] aws_instance.veos</title>
<path fill="none" stroke="#000000" d="M687,-287.8314C687,-280.131 687,-270.9743 687,-262.4166"/>
<polygon fill="#000000" stroke="#000000" points="690.5001,-262.4132 687,-252.4133 683.5001,-262.4133 690.5001,-262.4132"/>
</g>
<!-- [root] meta.count&#45;boundary (count boundary fixup)&#45;&gt;[root] aws_route.internet_access -->
<g id="edge20" class="edge">
<title>[root] meta.count&#45;boundary (count boundary fixup)&#45;&gt;[root] aws_route.internet_access</title>
<path fill="none" stroke="#000000" d="M594.2072,-289.2554C535.6467,-278.6881 459.7044,-264.9843 398.1004,-253.8678"/>
<polygon fill="#000000" stroke="#000000" points="398.4134,-250.3678 387.9507,-252.0362 397.1702,-257.2565 398.4134,-250.3678"/>
</g>
<!-- [root] provider.aws (close) -->
<g id="node16" class="node">
<title>[root] provider.aws (close)</title>
<ellipse fill="none" stroke="#000000" cx="288" cy="-306" rx="132.6765" ry="18"/>
<text text-anchor="middle" x="288" y="-302.3" font-family="Times,serif" font-size="14.00" fill="#000000">[root] provider.aws (close)</text>
</g>
<!-- [root] provider.aws (close)&#45;&gt;[root] aws_instance.veos -->
<g id="edge21" class="edge">
<title>[root] provider.aws (close)&#45;&gt;[root] aws_instance.veos</title>
<path fill="none" stroke="#000000" d="M367.7846,-291.6028C435.7384,-279.3404 533.0984,-261.7717 602.3971,-249.2667"/>
<polygon fill="#000000" stroke="#000000" points="603.1915,-252.68 612.411,-247.4597 601.9484,-245.7912 603.1915,-252.68"/>
</g>
<!-- [root] provider.aws (close)&#45;&gt;[root] aws_route.internet_access -->
<g id="edge22" class="edge">
<title>[root] provider.aws (close)&#45;&gt;[root] aws_route.internet_access</title>
<path fill="none" stroke="#000000" d="M288,-287.8314C288,-280.131 288,-270.9743 288,-262.4166"/>
<polygon fill="#000000" stroke="#000000" points="291.5001,-262.4132 288,-252.4133 284.5001,-262.4133 291.5001,-262.4132"/>
</g>
<!-- [root] root -->
<g id="node17" class="node">
<title>[root] root</title>
<ellipse fill="none" stroke="#000000" cx="487" cy="-378" rx="58.4896" ry="18"/>
<text text-anchor="middle" x="487" y="-374.3" font-family="Times,serif" font-size="14.00" fill="#000000">[root] root</text>
</g>
<!-- [root] root&#45;&gt;[root] meta.count&#45;boundary (count boundary fixup) -->
<g id="edge23" class="edge">
<title>[root] root&#45;&gt;[root] meta.count&#45;boundary (count boundary fixup)</title>
<path fill="none" stroke="#000000" d="M525.0892,-364.2879C554.1786,-353.8157 594.7911,-339.1952 628.0636,-327.2171"/>
<polygon fill="#000000" stroke="#000000" points="629.4608,-330.4341 637.6841,-323.7537 627.0897,-323.8479 629.4608,-330.4341"/>
</g>
<!-- [root] root&#45;&gt;[root] provider.aws (close) -->
<g id="edge24" class="edge">
<title>[root] root&#45;&gt;[root] provider.aws (close)</title>
<path fill="none" stroke="#000000" d="M449.1012,-364.2879C419.5415,-353.5929 378.0231,-338.5712 344.5387,-326.4562"/>
<polygon fill="#000000" stroke="#000000" points="345.471,-323.0715 334.8768,-322.9604 343.0894,-329.654 345.471,-323.0715"/>
</g>
</g>
</svg>
